<?xml version="1.0" encoding="utf-8"?>
<!-- Generator: Adobe Illustrator 16.0.4, SVG Export Plug-In . SVG Version: 6.00 Build 0)  -->
<!DOCTYPE svg PUBLIC "-//W3C//DTD SVG 1.1//EN" "http://www.w3.org/Graphics/SVG/1.1/DTD/svg11.dtd">
<svg version="1.1" id="Layer_2_1_" xmlns="http://www.w3.org/2000/svg" xmlns:xlink="http://www.w3.org/1999/xlink" x="0px" y="0px"
	 width="693.615px" height="419.375px" viewBox="0 0 693.615 419.375" enable-background="new 0 0 693.615 419.375"
	 xml:space="preserve">
<g>
	<path fill="#FFE81F" stroke="#FFE81F" stroke-width="3" stroke-miterlimit="10" d="M662.016,214.718h-0.019v-0.878h-97.606
		c-16.352,0-26.068,7.94-29.148,23.816c-3.081,15.879,5.688,33.297,26.305,52.254c12.5,9.836,10.367,14.516-6.398,14.041h-42.485
		h-1.198h-31.86l-9.598-12.264c9.953-2.368,17.596-5.627,22.928-9.775c5.332-4.146,9.094-9.508,11.286-16.084
		c2.191-6.576,2.813-12.648,1.866-18.219c-0.948-5.567-2.548-10.277-4.799-14.129c-2.252-3.852-6.487-7.85-12.708-11.998
		c-6.221-4.146-14.485-6.693-24.794-7.643h-83.535v5.332h83.535c9.123,0.831,16.499,3.142,22.128,6.932
		c5.628,3.793,9.376,7.303,11.241,10.531c1.867,3.23,3.14,7.303,3.822,12.219c0.68,4.919,0.088,10.073-1.777,15.463
		c-1.867,5.393-5.037,9.953-9.51,13.686c-4.474,3.732-12.812,6.844-25.016,9.332v7.465l11.819,14.484h34.971h1.198h42.485
		c22.513-0.592,26.305-8.233,11.375-22.928c-20.144-18.72-28.615-34.538-25.416-47.455c3.199-12.914,10.96-19.49,23.283-19.729
		h92.293v27.549h-53.547c-19.67-0.355-24.765,5.63-15.285,17.951c20.38,17.301,30.807,32.823,31.281,46.566
		c0.474,13.746-7.109,22.277-22.75,25.594h-83.72h-1.198h-41.014l-40.523-42.389h-8.62v42.389h-35.725V219.721h-5.332v117.111v1.451
		v3.881h46.389v-42.389l40.701,42.389h44.124h1.198h83.72c18.484-3.08,27.904-12.559,28.26-28.438
		c0.355-15.876-9.064-32.228-28.26-49.055c-10.724-8.887-8.473-13.092,6.754-12.619h58.86v-0.767h0.019V214.718z"/>
	<path fill="#FFE81F" stroke="#FFE81F" stroke-width="3" stroke-miterlimit="10" d="M73.889,196.744
		c11.256,4.947,23.846,7.42,37.769,7.42h56.875v-0.166v-5.166v-27.548v-3.848v-1.484h-40.168c-8.176,0-14.338-0.207-18.484-0.622
		c-4.147-0.414-8.176-1.155-12.086-2.222s-7.229-3.229-9.953-6.487c-2.726-3.257-4.236-8.678-4.532-16.263
		c0.414-7.82,1.925-13.271,4.532-16.352c2.606-3.08,5.599-5.243,8.976-6.487s7.228-2.133,11.553-2.666
		c4.324-0.533,10.989-0.8,19.995-0.8h40.168v-0.634v-4.698V81.172v-5.315V75.84h-56.875c-10.072,0-19.566,1.289-28.482,3.866
		c-8.917,2.577-16.811,6.487-23.683,11.73c-6.873,5.243-12.25,11.819-16.13,19.729c-3.881,7.909-5.82,16.9-5.82,26.971
		c0,14.338,3.244,26.453,9.73,36.347C53.761,184.378,62.632,191.799,73.889,196.744z M48.739,113.165
		c3.673-7.109,8.62-13.093,14.841-17.951c6.221-4.857,13.359-8.383,21.417-10.575c8.057-2.191,16.943-3.346,26.66-3.466H163.2
		v27.549h-34.836c-9.064,0.178-15.951,0.548-20.662,1.111c-4.709,0.564-8.99,1.615-12.841,3.155
		c-3.852,1.542-7.465,3.999-10.842,7.376s-5.392,10.042-6.043,19.995c0.533,8.651,2.369,15.107,5.51,19.373
		c3.14,4.266,7.021,7.021,11.642,8.265s9.301,2.133,14.041,2.666c4.739,0.533,11.138,0.742,19.195,0.622H163.2v27.548h-51.543
		c-12.797-0.235-24.409-2.546-34.836-6.932c-10.428-4.383-18.722-11.077-24.883-20.083c-6.162-9.005-9.184-20.231-9.064-33.681
		C43.11,128.598,45.065,120.274,48.739,113.165z"/>
	<path fill="#FFE81F" stroke="#FFE81F" stroke-width="3" stroke-miterlimit="10" d="M254.677,174.572
		c9.301,0,16.247-1.762,20.84-5.288c4.59-3.524,7.449-7.554,8.575-12.086c1.125-4.532,1.925-9.967,2.399-16.307
		c-0.475-9.064-2.696-16.958-6.665-23.683c-3.97-6.723-12.353-10.086-25.149-10.086c-20.144,0-30.215,11.257-30.215,33.77
		c0,9.006,2.044,16.871,6.132,23.594C234.682,171.21,242.709,174.572,254.677,174.572z M255.032,113.165
		c10.486,0,17.373,2.786,20.662,8.354c3.287,5.569,5.079,12.117,5.376,19.64c-0.297,5.332-0.919,9.864-1.866,13.597
		c-0.948,3.732-3.318,7.08-7.109,10.042c-3.792,2.963-9.479,4.443-17.062,4.443c-9.895,0-16.5-2.799-19.817-8.398
		c-3.318-5.599-4.977-12.16-4.977-19.684C230.238,122.496,238.503,113.165,255.032,113.165z"/>
	<path fill="#FFE81F" stroke="#FFE81F" stroke-width="3" stroke-miterlimit="10" d="M215.798,198.877
		c11.048,5.008,24.274,7.51,39.679,7.51c15.403,0,28.659-2.488,39.769-7.465c11.107-4.977,19.595-12.411,25.46-22.306
		c5.865-9.894,8.798-21.861,8.798-35.902s-2.933-25.994-8.798-35.858S306.338,87.526,295.2,82.461
		c-11.139-5.065-24.38-7.598-39.724-7.598c-11.553,0-21.892,1.437-31.015,4.31c-9.124,2.875-16.826,7.096-23.105,12.664
		c-6.28,5.569-11.05,12.428-14.308,20.573c-3.259,8.146-4.888,17.582-4.888,28.304c0,14.161,2.844,26.142,8.531,35.947
		C196.38,186.466,204.747,193.871,215.798,198.877z M192.337,114.631c2.99-7.494,7.39-13.788,13.196-18.884
		c5.806-5.095,12.915-8.976,21.328-11.642c8.412-2.666,17.951-3.999,28.615-3.999c14.159,0,26.378,2.341,36.657,7.021
		c10.278,4.681,18.129,11.553,23.551,20.617c5.42,9.064,8.249,20.055,8.486,32.97c-0.237,12.856-3.066,23.832-8.486,32.925
		c-5.422,9.095-13.257,15.938-23.506,20.528c-10.25,4.592-22.483,6.888-36.702,6.888s-26.424-2.311-36.613-6.932
		c-10.19-4.622-17.907-11.434-23.149-20.44c-5.244-9.005-7.984-20.024-8.221-33.059
		C187.729,130.791,189.344,122.126,192.337,114.631z"/>
	<path fill="#FFE81F" stroke="#FFE81F" stroke-width="3" stroke-miterlimit="10" d="M432.317,160.309
		c2.339-3.879,3.865-10.827,4.576-20.839c-0.237-9.183-1.586-15.965-4.043-20.351c-2.46-4.384-5.614-7.805-9.465-10.264
		c-3.852-2.458-8.887-3.688-15.107-3.688H381.44v68.428h27.016c6.102,0,11.02-1.244,14.752-3.732S429.976,164.189,432.317,160.309z
		 M408.456,168.262h-21.595l-0.089-57.764h21.506c5.924,0.12,10.354,1.348,13.285,3.688c2.934,2.341,5.199,5.185,6.799,8.531
		c1.6,3.348,2.666,8.931,3.199,16.751c-0.711,9.302-1.793,15.256-3.244,17.862c-1.452,2.608-3.599,5.036-6.442,7.287
		C419.031,166.871,414.558,168.084,408.456,168.262z"/>
	<path fill="#FFE81F" stroke="#FFE81F" stroke-width="3" stroke-miterlimit="10" d="M443.958,200.609
		c7.79-2.605,14.382-6.278,19.773-11.019c5.391-4.739,9.716-11.197,12.975-19.373c3.258-8.176,5.213-18.247,5.865-30.215
		c0-12.322-1.793-22.424-5.377-30.304c-3.585-7.878-8.028-14.219-13.33-19.018c-5.303-4.799-11.908-8.472-19.816-11.02
		c-7.91-2.546-16.989-3.821-27.238-3.821h-75.715v128.324h73.582C426.407,204.4,436.167,203.218,443.958,200.609z M346.427,81.172
		h70.383c10.309-0.236,19.165,1.008,26.571,3.732c7.405,2.726,13.182,6.103,17.329,10.131c4.146,4.03,7.198,7.969,9.153,11.819
		c1.955,3.852,3.555,7.465,4.799,10.842s2.103,10.812,2.577,22.306c-0.355,11.968-2.252,21.595-5.688,28.882
		c-3.437,7.287-7.169,12.797-11.197,16.529c-4.029,3.732-9.095,6.813-15.196,9.243c-6.103,2.43-16.263,3.82-30.481,4.176h-68.25
		V81.172z"/>
	<path fill="#FFE81F" stroke="#FFE81F" stroke-width="3" stroke-miterlimit="10" d="M661.779,165.952H536.02V151.2h44.078v-22.395
		H536.02v-14.752h68.25V75.84H494.252v128.324h167.527V165.952z M656.447,198.832H499.584V81.172h99.354v27.549h-68.25v25.416
		h44.078v11.908h-44.078v25.238h125.76V198.832z"/>
	<path fill="#FFE81F" stroke="#FFE81F" stroke-width="3" stroke-miterlimit="10" d="M179.463,213.84l-11.908,55.453l-17.862-55.453
		h-38.391l-15.285,55.453L78.421,213.84H36.653l39.102,128.324h41.768l13.508-54.387l16.263,54.387h41.768l32.17-128.324H179.463z
		 M185.15,336.832h-33.77l-20.351-66.297l-17.595,66.297H80.198l-36.791-117.66H74.6l17.596,55.453h7.643l15.996-55.453h30.215
		l18.573,55.453h5.954l13.152-55.453h31.015L185.15,336.832z"/>
	<path fill="#FFE81F" stroke="#FFE81F" stroke-width="3" stroke-miterlimit="10" d="M269.219,293.109h37.857l-18.218-52.697
		L269.219,293.109z M298.723,287.777h-21.15l11.375-28.615L298.723,287.777z"/>
	<path fill="#FFE81F" stroke="#FFE81F" stroke-width="3" stroke-miterlimit="10" d="M256.866,213.84l-42.212,128.324h46.033
		l8.087-23.105h38.124l8.087,23.105h48.521L320.584,213.84H256.866z M319.518,336.832l-8.354-23.105h-45.767l-8.265,23.105h-35.014
		l39.19-117.66h55.809l39.102,117.66H319.518z"/>
	<path fill="#FFE81F" stroke="#FFE81F" stroke-width="3" stroke-miterlimit="10" d="M466.585,269.471
		c2.223-1.539,3.451-5.361,3.688-11.463c-0.415-5.865-1.777-9.731-4.088-11.598s-4.266-2.799-5.865-2.799h-35.902v28.17h35.991
		C462.305,271.781,464.364,271.013,466.585,269.471z M429.928,266.895v-18.129h27.371c1.185,0,2.68,0.607,4.487,1.821
		c1.807,1.215,2.858,3.659,3.155,7.331c-0.119,4.03-1.053,6.532-2.8,7.51c-1.748,0.978-3.332,1.467-4.754,1.467H429.928z"/>
</g>
</svg>
