<?xml version="1.0" encoding="utf-8"?>
<!-- Generator: Adobe Illustrator 16.0.4, SVG Export Plug-In . SVG Version: 6.00 Build 0)  -->
<!DOCTYPE svg PUBLIC "-//W3C//DTD SVG 1.1//EN" "http://www.w3.org/Graphics/SVG/1.1/DTD/svg11.dtd">
<svg version="1.1" id="Layer_1" xmlns="http://www.w3.org/2000/svg" xmlns:xlink="http://www.w3.org/1999/xlink" x="0px" y="0px"
	 width="581.4px" height="454.716px" viewBox="15.3 93.06 581.4 454.716" enable-background="new 15.3 93.06 581.4 454.716"
	 xml:space="preserve">
<polygon fill="#969696" points="15.3,214.236 15.3,424.764 147.492,424.764 296.82,545.94 296.82,93.06 147.492,214.236 "/>
<path fill="#969696" d="M506.124,91.224l-15.912,15.912C544.68,164.664,575.28,240.552,575.28,319.5s-30.601,156.06-85.068,212.364
	l15.912,15.912C564.876,487.188,596.7,405.18,596.7,319.5C596.7,233.82,564.876,151.812,506.124,91.224z"/>
<path fill="#969696" d="M451.044,146.304l-15.912,15.912c41.004,41.616,63.648,98.532,63.648,157.284
	s-22.645,115.668-63.648,157.284l15.912,15.912c45.288-46.513,70.38-107.712,70.38-173.196
	C520.812,254.016,496.332,192.816,451.044,146.304z"/>
<path fill="#969696" d="M395.352,201.996l-15.911,15.912c26.928,26.928,41.615,63.648,41.615,100.368
	c0,36.72-14.688,74.664-41.615,100.98l15.911,15.912c31.824-31.824,48.349-72.216,48.349-117.504
	C443.088,275.436,425.952,233.82,395.352,201.996z"/>
</svg>
